# xmcd CD database file
# Copyright (C) 1993-1996 Ti Kan
#
# Track frame offsets:
# 150
# 10392
# 23322
# 35460
# 45355
# 56152
# 66595
# 77940
# 89435
# 99737
# 111040
# 123532
# 134972
# 153597
# 167532
# 180285
# 193557
# 205140
# 216180
# 227850
# 240815
# 252090
#
# Disc length: 3558 seconds
#
# Revision: 0
# Processed by: cddbd v1.4b41PL1 Copyright (c) Steve Scherf et al.
# Submitted via: inCDius 1.1b5
#
DISCID=2b0de416
DTITLE=Jerry Reed - When You're Hot, You're Hot /Ko-Ko-Joe
DYEAR=1900
DGENRE=
TTITLE0=When You're Hot, You're Hot
TTITLE1=Thank You Girl
TTITLE2=Don't Think Twice It's All Right
TTITLE3=She Understands Me
TTITLE4=Turned On (Instrumental)
TTITLE5=Amos Moses
TTITLE6=I'll Be Around (In All The Old Places)
TTITLE7=Big Daddy
TTITLE8=With You (Missing You)
TTITLE9=My Kinda Love
TTITLE10=Ruby, Don't Take Your Love To Town
TTITLE11=Ko-Ko-Joe
TTITLE12=Another Puff
TTITLE13=Early Morning Rain
TTITLE14=A Brand New Day
TTITLE15=Not As A Sweetheart (But Just As A Friend)
TTITLE16=You'll Never Walk Alone
TTITLE17=(Love Is) A Stranger To Me
TTITLE18=Country Boy's Dream
TTITLE19=Seasons Of My Mind
TTITLE20=Framed
TTITLE21=Lord, Mr. Ford
EXTD=
EXTT0=
EXTT1=
EXTT2=
EXTT3=
EXTT4=
EXTT5=
EXTT6=
EXTT7=
EXTT8=
EXTT9=
EXTT10=
EXTT11=
EXTT12=
EXTT13=
EXTT14=
EXTT15=
EXTT16=
EXTT17=
EXTT18=
EXTT19=
EXTT20=
EXTT21=
PLAYORDER=
